<svg width="20" height="20" viewBox="0 0 20 20" fill="none" xmlns="http://www.w3.org/2000/svg">
<path d="M17.5 9.99997C17.5 10.5175 17.08 10.9375 16.5625 10.9375H5.57875L9.6875 14.6137C9.78008 14.6956 9.85557 14.7949 9.90962 14.906C9.96367 15.0172 9.99522 15.1379 10.0025 15.2612C10.0097 15.3846 9.99246 15.5082 9.95176 15.6248C9.91107 15.7415 9.84771 15.849 9.76532 15.9411C9.68294 16.0332 9.58316 16.1081 9.47172 16.1615C9.36029 16.2149 9.23939 16.2458 9.11599 16.2523C8.99259 16.2588 8.86912 16.2409 8.75268 16.1995C8.63624 16.1581 8.52912 16.0941 8.4375 16.0112L2.5 10.6987C2.40169 10.6108 2.32304 10.5031 2.2692 10.3827C2.21535 10.2623 2.18752 10.1319 2.18752 9.99997C2.18752 9.86807 2.21535 9.73766 2.2692 9.61725C2.32304 9.49685 2.40169 9.38916 2.5 9.30122L8.4375 3.98872C8.52912 3.9058 8.63624 3.84182 8.75268 3.80044C8.86912 3.75907 8.99259 3.74113 9.11599 3.74764C9.23939 3.75416 9.36029 3.785 9.47172 3.83841C9.58316 3.89181 9.68294 3.96672 9.76532 4.05883C9.84771 4.15093 9.91107 4.25841 9.95176 4.37509C9.99246 4.49177 10.0097 4.61535 10.0025 4.73871C9.99522 4.86207 9.96367 4.98278 9.90962 5.09391C9.85557 5.20503 9.78008 5.30437 9.6875 5.38622L5.57875 9.06247H16.5625C16.6856 9.06247 16.8075 9.08672 16.9213 9.13383C17.035 9.18095 17.1384 9.25 17.2254 9.33706C17.3125 9.42411 17.3815 9.52746 17.4286 9.6412C17.4758 9.75495 17.5 9.87686 17.5 9.99997Z" fill="#232323"/>
</svg>
