<svg width="30" height="30" viewBox="0 0 30 30" fill="none" xmlns="http://www.w3.org/2000/svg">
<path d="M26.25 7.5C27.6375 7.5 28.75 8.6125 28.75 10V18.75H26.25C26.25 19.7446 25.8549 20.6984 25.1517 21.4017C24.4484 22.1049 23.4946 22.5 22.5 22.5C21.5054 22.5 20.5516 22.1049 19.8483 21.4017C19.1451 20.6984 18.75 19.7446 18.75 18.75H11.25C11.25 19.7446 10.8549 20.6984 10.1517 21.4017C9.44839 22.1049 8.49456 22.5 7.5 22.5C6.50544 22.5 5.55161 22.1049 4.84835 21.4017C4.14509 20.6984 3.75 19.7446 3.75 18.75H1.25V10C1.25 8.6125 2.3625 7.5 3.75 7.5H26.25ZM26.875 9.375H21.875V12.5H26.875V9.375ZM20 9.375H15V12.5H20V9.375ZM13.125 9.375H8.125V12.5H13.125V9.375ZM6.25 9.375H3.125V16.25L6.25 13.75V9.375ZM22.5 16.875C22.0027 16.875 21.5258 17.0725 21.1742 17.4242C20.8225 17.7758 20.625 18.2527 20.625 18.75C20.625 19.2473 20.8225 19.7242 21.1742 20.0758C21.5258 20.4275 22.0027 20.625 22.5 20.625C22.9973 20.625 23.4742 20.4275 23.8258 20.0758C24.1775 19.7242 24.375 19.2473 24.375 18.75C24.375 18.2527 24.1775 17.7758 23.8258 17.4242C23.4742 17.0725 22.9973 16.875 22.5 16.875ZM7.5 16.875C7.00272 16.875 6.52581 17.0725 6.17418 17.4242C5.82254 17.7758 5.625 18.2527 5.625 18.75C5.625 19.2473 5.82254 19.7242 6.17418 20.0758C6.52581 20.4275 7.00272 20.625 7.5 20.625C7.99728 20.625 8.47419 20.4275 8.82582 20.0758C9.17746 19.7242 9.375 19.2473 9.375 18.75C9.375 18.2527 9.17746 17.7758 8.82582 17.4242C8.47419 17.0725 7.99728 16.875 7.5 16.875Z" fill="white"/>
</svg>
