<svg width="30" height="30" viewBox="0 0 30 30" fill="none" xmlns="http://www.w3.org/2000/svg">
<path d="M3.75 7.5C2.3625 7.5 1.25 8.6125 1.25 10V18.75H3.75C3.75 19.7446 4.14509 20.6984 4.84835 21.4017C5.55161 22.1049 6.50544 22.5 7.5 22.5C8.49456 22.5 9.44839 22.1049 10.1517 21.4017C10.8549 20.6984 11.25 19.7446 11.25 18.75H18.75C18.75 19.7446 19.1451 20.6984 19.8483 21.4017C20.5516 22.1049 21.5054 22.5 22.5 22.5C23.4946 22.5 24.4484 22.1049 25.1517 21.4017C25.8549 20.6984 26.25 19.7446 26.25 18.75H28.75V10C28.75 8.6125 27.6375 7.5 26.25 7.5H3.75ZM3.125 9.375H8.125V12.5H3.125V9.375ZM10 9.375H15V12.5H10V9.375ZM16.875 9.375H21.875V12.5H16.875V9.375ZM23.75 9.375H26.875V16.25L23.75 13.75V9.375ZM7.5 16.875C7.99728 16.875 8.47419 17.0725 8.82583 17.4242C9.17746 17.7758 9.375 18.2527 9.375 18.75C9.375 19.2473 9.17746 19.7242 8.82583 20.0758C8.47419 20.4275 7.99728 20.625 7.5 20.625C7.00272 20.625 6.52581 20.4275 6.17417 20.0758C5.82254 19.7242 5.625 19.2473 5.625 18.75C5.625 18.2527 5.82254 17.7758 6.17417 17.4242C6.52581 17.0725 7.00272 16.875 7.5 16.875ZM22.5 16.875C22.9973 16.875 23.4742 17.0725 23.8258 17.4242C24.1775 17.7758 24.375 18.2527 24.375 18.75C24.375 19.2473 24.1775 19.7242 23.8258 20.0758C23.4742 20.4275 22.9973 20.625 22.5 20.625C22.0027 20.625 21.5258 20.4275 21.1742 20.0758C20.8225 19.7242 20.625 19.2473 20.625 18.75C20.625 18.2527 20.8225 17.7758 21.1742 17.4242C21.5258 17.0725 22.0027 16.875 22.5 16.875Z" fill="white"/>
</svg>
