<svg width="20" height="20" viewBox="0 0 20 20" fill="none" xmlns="http://www.w3.org/2000/svg">
<path d="M15.8333 2.5H15V0.833332H13.3333V2.5H6.66667V0.833332H5V2.5H4.16667C3.24167 2.5 2.5 3.24167 2.5 4.16667V15.8333C2.5 16.2754 2.67559 16.6993 2.98816 17.0118C3.30072 17.3244 3.72464 17.5 4.16667 17.5H15.8333C16.75 17.5 17.5 16.75 17.5 15.8333V4.16667C17.5 3.72464 17.3244 3.30071 17.0118 2.98815C16.6993 2.67559 16.2754 2.5 15.8333 2.5ZM15.8333 15.8333H4.16667V6.66667H15.8333V15.8333ZM10 14.1667V12.5H6.66667V10H10V8.33333L13.3333 11.25L10 14.1667Z" fill="#CE348B"/>
</svg>
