<svg width="30" height="30" viewBox="0 0 30 30" fill="none" xmlns="http://www.w3.org/2000/svg">
<path d="M26.25 13.75H22.2875L25.4625 10.575C25.5784 10.4594 25.6703 10.322 25.733 10.1708C25.7958 10.0196 25.8281 9.85746 25.8281 9.69375C25.8281 9.53004 25.7958 9.36794 25.733 9.21672C25.6703 9.0655 25.5784 8.92814 25.4625 8.8125C24.975 8.325 24.175 8.325 23.6875 8.8125L18.75 13.75H16.25V11.25L21.1875 6.3125C21.675 5.825 21.675 5.025 21.1875 4.5375C21.0719 4.42162 20.9345 4.32969 20.7833 4.26696C20.6321 4.20423 20.47 4.17194 20.3063 4.17194C20.1425 4.17194 19.9804 4.20423 19.8292 4.26696C19.678 4.32969 19.5406 4.42162 19.425 4.5375L16.25 7.7125V3.75C16.25 3.0625 15.6875 2.5 15 2.5C14.3125 2.5 13.75 3.0625 13.75 3.75V7.7125L10.575 4.5375C10.4594 4.42162 10.322 4.32969 10.1708 4.26696C10.0196 4.20423 9.85746 4.17194 9.69375 4.17194C9.53004 4.17194 9.36794 4.20423 9.21672 4.26696C9.0655 4.32969 8.92814 4.42162 8.8125 4.5375C8.325 5.025 8.325 5.825 8.8125 6.3125L13.75 11.25V13.75H11.25L6.3125 8.8125C5.825 8.325 5.025 8.325 4.5375 8.8125C4.42162 8.92814 4.32969 9.0655 4.26696 9.21672C4.20423 9.36794 4.17194 9.53004 4.17194 9.69375C4.17194 9.85746 4.20423 10.0196 4.26696 10.1708C4.32969 10.322 4.42162 10.4594 4.5375 10.575L7.7125 13.75H3.75C3.0625 13.75 2.5 14.3125 2.5 15C2.5 15.6875 3.0625 16.25 3.75 16.25H7.7125L4.5375 19.425C4.42162 19.5406 4.32969 19.678 4.26696 19.8292C4.20423 19.9804 4.17194 20.1425 4.17194 20.3063C4.17194 20.47 4.20423 20.6321 4.26696 20.7833C4.32969 20.9345 4.42162 21.0719 4.5375 21.1875C5.025 21.675 5.825 21.675 6.3125 21.1875L11.25 16.25H13.75V18.75L8.8125 23.6875C8.325 24.175 8.325 24.975 8.8125 25.4625C9.3 25.95 10.0875 25.95 10.575 25.4625L13.75 22.2875V26.25C13.75 26.9375 14.3125 27.5 15 27.5C15.6875 27.5 16.25 26.9375 16.25 26.25V22.2875L19.425 25.4625C19.9125 25.95 20.7 25.95 21.1875 25.4625C21.675 24.975 21.675 24.175 21.1875 23.6875L16.25 18.75V16.25H18.75L23.6875 21.1875C24.175 21.675 24.975 21.675 25.4625 21.1875C25.5784 21.0719 25.6703 20.9345 25.733 20.7833C25.7958 20.6321 25.8281 20.47 25.8281 20.3063C25.8281 20.1425 25.7958 19.9804 25.733 19.8292C25.6703 19.678 25.5784 19.5406 25.4625 19.425L22.2875 16.25H26.25C26.9375 16.25 27.5 15.6875 27.5 15C27.5 14.3125 26.9375 13.75 26.25 13.75Z" fill="#CE348B"/>
</svg>
