<svg width="161" height="30" viewBox="0 0 161 30" fill="none" xmlns="http://www.w3.org/2000/svg">
<path d="M45.2474 10.9435C45.28 10.9115 45.3201 10.8757 45.3788 10.8311C46.0693 10.3068 45.3321 10.3349 44.763 10.3349L44.7608 10.3326H43.1557C42.9926 10.3233 42.8209 10.3171 42.6308 10.3171C42.5072 10.3171 42.3947 10.3191 42.2994 10.3206L42.1309 10.3225C41.9666 10.3225 41.8079 10.3262 41.6527 10.3326H41.4102V10.3472C37.1022 10.6275 36.4694 13.4397 36.3832 15.5994L36.4112 23.4141C36.4011 24.0141 36.5372 24.4497 36.8271 24.7453C37.0943 25.0179 37.4822 25.156 37.9806 25.156H37.9825C38.4783 25.1558 38.8688 25.0155 39.1432 24.7389C39.4426 24.4372 39.5873 23.9989 39.5854 23.4001L39.5851 16.0705C39.6453 14.0947 40.3102 13.3551 42.0381 13.3416C42.0678 13.3413 42.0897 13.3408 42.1155 13.3406H42.9162C43.1742 13.3404 43.4692 13.2339 43.6338 12.9403C44.0061 12.1571 44.5478 11.4856 45.2474 10.9435Z" fill="#002674"/>
<path d="M48.577 13.8166C49.8258 13.1845 51.2134 13.219 52.2893 13.9093C53.0206 14.3784 53.306 15.1054 53.14 16.0727H47.4907C47.4507 14.902 47.7855 14.2177 48.577 13.8166ZM69.0555 11.0697C69.0931 11.0384 69.1314 11.011 69.1693 10.9814C69.1997 10.9408 69.2552 10.888 69.3483 10.817C70.0388 10.2927 69.3019 10.3208 68.7328 10.3208L68.7239 10.3126C67.2931 10.3141 65.6696 10.3097 63.8118 10.3144C63.5274 10.3013 63.2761 10.2944 63.0309 10.2944C62.4566 10.2944 61.9128 10.3292 60.9528 10.427C59.3756 10.5882 58.1832 11.5962 57.6821 13.1929C57.4166 14.0387 57.3569 14.8364 57.4927 15.5538C57.5102 15.6568 57.5313 15.7547 57.5566 15.8471C57.5576 15.8508 57.5586 15.8548 57.5595 15.8585C57.593 15.978 57.6298 16.0924 57.6723 16.1974L57.6728 16.191C57.7281 16.3332 57.7902 16.4725 57.8641 16.6059C58.3881 17.5537 59.3648 18.2361 60.6841 18.5775C62.6016 19.0947 63.7959 19.6691 63.8212 20.9283C63.7676 21.6244 63.4092 22.0418 62.7261 22.2035C62.2449 22.3176 61.6728 22.3211 61.1751 22.324L50.5293 22.2552H50.5286C49.7145 22.2658 49.0813 22.1303 48.6062 21.8352C47.7953 21.3308 47.4374 20.4049 47.5401 19.0809H47.5617C47.8422 19.0811 48.1289 19.0814 48.4146 19.0806C48.9648 19.0792 49.4868 19.0804 49.9987 19.0819C51.1901 19.0853 52.3149 19.0883 53.5905 19.0548C55.3665 19.0079 56.3603 18.0204 56.4655 16.1984C56.5917 14.0131 55.3421 11.9325 53.3561 11.0214C51.5327 10.1845 49.9606 10.1199 47.9312 10.798C45.6838 11.5484 44.4431 13.1614 44.3433 15.4626C44.266 17.2431 44.2733 18.8524 44.3662 20.3817C44.4841 22.3267 45.5077 23.7856 47.3262 24.6006C48.1746 24.9807 49.0545 25.1971 50.0066 25.2632V25.2773L61.8487 25.2861C64.9113 25.241 66.8551 23.737 67.0752 21.0486C67.1 20.7456 67.0899 20.3539 67.0116 19.9494C66.7006 18.4311 65.4866 16.8677 63.551 16.2507C63.5384 16.245 63.5269 16.2381 63.5139 16.2337C63.1137 16.0963 62.734 15.9901 62.3992 15.8962C61.5517 15.6588 61.0626 15.5023 60.818 15.1877C60.5465 14.8823 60.5529 14.5283 60.6342 14.2549C60.6632 14.0986 60.7293 13.9606 60.8403 13.84C61.1334 13.521 61.6824 13.3615 62.0688 13.348C62.6266 13.3287 62.9703 13.3255 63.4684 13.3226L64.6001 13.3191C64.6568 13.3218 64.7156 13.328 64.7708 13.328C64.831 13.328 64.8858 13.3221 64.9425 13.3181L67.0907 13.3117C67.2928 13.2602 67.4891 13.136 67.6043 12.8996C67.6276 12.8517 67.6473 12.8268 67.6645 12.8167C67.718 12.711 67.7723 12.6057 67.8322 12.5042C68.1521 11.9621 68.5608 11.4814 69.0555 11.0697Z" fill="#002674"/>
<path d="M146.76 19.8134C146.687 21.0844 146.015 21.9087 144.866 22.1343C144.517 22.2028 144.165 22.2396 143.83 22.2438C143.486 22.2396 143.134 22.2028 142.784 22.1343C141.636 21.9085 140.964 21.0844 140.891 19.8134C140.872 19.4833 140.855 18.6878 140.849 17.7927C140.855 16.8917 140.872 16.0959 140.891 15.7656C140.964 14.4946 141.636 13.6707 142.784 13.4449C143.132 13.3767 143.483 13.3397 143.825 13.3352C144.168 13.3397 144.518 13.3767 144.866 13.4449C146.015 13.6705 146.687 14.4946 146.76 15.7659C146.783 16.1623 146.796 17.0729 146.801 17.7865C146.796 18.5066 146.783 19.417 146.76 19.8134ZM117.888 24.7505V24.7498H117.889L117.888 24.7505ZM150.091 19.8642C150.105 19.6849 150.116 19.5109 150.125 19.3398C150.133 19.3105 150.138 19.2799 150.139 19.2484C150.161 18.7378 150.172 18.2606 150.171 17.7902C150.172 17.3187 150.161 16.8412 150.139 16.3306C150.138 16.3001 150.133 16.2702 150.125 16.2416C150.116 16.0696 150.105 15.895 150.091 15.7148C150.027 14.852 149.76 13.99 149.273 13.0799C148.342 11.3377 146.31 10.2979 143.812 10.2979C141.341 10.2979 139.309 11.3377 138.378 13.0796C137.891 13.99 137.623 14.852 137.559 15.7148C137.546 15.8943 137.535 16.0683 137.525 16.2399C137.518 16.269 137.513 16.2993 137.512 16.3306C137.49 16.8476 137.479 17.3248 137.48 17.789C137.479 18.2542 137.49 18.7317 137.512 19.2484C137.513 19.2789 137.518 19.3088 137.525 19.3371C137.535 19.5092 137.546 19.684 137.559 19.8642C137.618 20.6483 137.846 21.432 138.252 22.2514C138.124 22.2507 138.019 22.2499 137.947 22.2492C137.642 22.247 137.074 22.2189 136.832 22.1651C136.418 22.0732 136.093 21.9013 135.845 21.6391C135.518 21.2925 135.324 20.7859 135.242 20.0905C135.22 19.9103 135.206 19.7185 135.198 19.5124C135.199 19.0277 135.199 18.5451 135.2 18.0676C135.202 17.2809 135.203 16.4946 135.203 15.7082C135.2 12.6011 133.355 10.6438 130.141 10.3381C128.639 10.1949 127.059 10.6736 125.86 11.6215C125.836 11.5988 125.811 11.5764 125.784 11.5564C124.807 10.7101 123.5 10.2627 122.004 10.2627C120.949 10.2627 119.845 10.5001 118.896 10.9312C116.513 12.0142 116.241 14.2565 116.244 15.8487L116.246 16.8781C116.25 18.9479 116.254 21.0883 116.239 23.1923C116.235 23.6999 116.284 24.3367 116.7 24.757C116.978 25.0377 117.378 25.1802 117.888 25.1802C117.89 25.1802 117.912 25.18 117.913 25.18C119.557 25.1659 119.552 23.7063 119.55 23.1568C119.54 20.5692 119.53 17.8935 119.557 15.2327C119.569 14.0701 120.271 13.457 121.644 13.4097C121.708 13.4077 121.772 13.4065 121.834 13.4065C123.416 13.4065 124.134 14.0817 124.163 15.596C124.203 17.8058 124.19 20.0559 124.176 22.2322L124.171 23.166C124.168 23.7211 124.199 24.349 124.615 24.7688C124.884 25.0397 125.273 25.177 125.796 25.177H125.796C126.314 25.1728 126.716 25.0279 126.992 24.7461C127.398 24.3315 127.447 23.7196 127.442 23.1756C127.419 20.7193 127.418 18.1277 127.44 15.2529C127.451 13.7997 128.566 13.4491 129.499 13.4112C129.565 13.4082 129.631 13.407 129.695 13.407C131.197 13.407 131.965 14.1367 131.979 15.5756C131.992 17.0322 131.997 18.5273 131.994 20.0905H132.003C132.183 23.5416 133.971 24.7247 135.845 25.1028C136.488 25.2325 137.438 25.2682 138.04 25.2682C138.091 25.2682 138.269 25.2695 138.532 25.2712C138.857 25.2734 139.311 25.2764 139.814 25.2791C140.466 25.2828 141.199 25.2857 141.849 25.2857H141.85C142.664 25.2857 143.191 25.281 143.456 25.2714C143.578 25.2766 143.7 25.2813 143.825 25.2813H143.839C146.31 25.2813 148.342 24.2413 149.273 22.4994C149.76 21.589 150.027 20.7272 150.091 19.8642Z" fill="#002674"/>
<path d="M72.5495 13.8166C73.7981 13.1845 75.1857 13.219 76.2618 13.9093C76.9931 14.3784 77.2783 15.1054 77.1122 16.0727H71.463C71.423 14.902 71.7578 14.2177 72.5495 13.8166ZM90.8345 13.3482C91.1766 13.3482 91.8544 13.3788 92.0288 12.2917C92.1096 11.7875 92.0349 11.4069 91.8485 11.0699C91.6451 10.7026 91.3695 10.4958 90.9755 10.4162C90.648 10.3501 90.2127 10.308 89.8472 10.3208L87.3115 10.3227C82.3488 10.3227 81.6546 13.3241 81.564 15.5996L81.5731 17.041V19.3481V19.4923C81.5731 21.6355 81.1845 22.1929 79.4493 22.2491C79.3451 22.2525 79.2378 22.2547 79.1238 22.2547C78.8484 22.2547 78.7563 22.2538 78.6802 22.253L78.4792 22.2523L77.8722 22.2543C77.8248 22.2545 77.776 22.2547 77.7263 22.2552H74.5018H74.5013C73.6846 22.2651 73.0533 22.1303 72.5787 21.8352C71.7676 21.3308 71.4097 20.4049 71.5126 19.0809H71.5337C71.8145 19.0811 72.1007 19.0814 72.3871 19.0806C72.9373 19.0797 73.4593 19.0804 73.971 19.0819C75.1623 19.0853 76.2869 19.0883 77.563 19.0548C79.3385 19.0079 80.3326 18.0204 80.4377 16.1984C80.564 14.0131 79.3144 11.9325 77.3284 11.0211C75.5197 10.1916 73.897 10.1248 71.9024 10.7983C69.6553 11.5565 68.4151 13.1695 68.3156 15.4626C68.2382 17.2426 68.2456 18.8519 68.3384 20.3817C68.4566 22.3267 69.4799 23.7856 71.2984 24.6006C72.1469 24.9809 73.027 25.1971 73.9788 25.2632V25.2773H74.209C74.223 25.2777 74.2365 25.2792 74.2508 25.2797C74.2559 25.28 74.2611 25.28 74.2662 25.28C74.2714 25.28 74.2756 25.2775 74.2807 25.2773H78.422C78.4581 25.2775 78.4908 25.279 78.5279 25.279C78.6082 25.279 78.6816 25.2782 78.7512 25.2773H79.0022V25.274L79.0275 25.2736C79.1695 25.2736 79.31 25.2723 79.4493 25.2704C82.4014 25.228 84.7752 24.6511 84.7752 19.9496L84.7846 19.3481V16.0707C84.8448 14.0947 85.5095 13.3551 87.2375 13.3416L90.3297 13.3536C90.4459 13.3581 90.7232 13.3482 90.8345 13.3482Z" fill="#002674"/>
<path d="M157.435 16.2509C157.422 16.245 157.41 16.2381 157.397 16.2336C156.997 16.0963 156.617 15.9901 156.282 15.8962C155.435 15.659 154.946 15.5025 154.701 15.1882C154.429 14.882 154.436 14.5273 154.517 14.2536C154.546 14.0978 154.612 13.96 154.723 13.8397C155.016 13.521 155.565 13.3615 155.951 13.3479L156.117 13.3423L157.691 13.347L158.581 13.3536C158.697 13.3578 158.974 13.3482 159.086 13.3482C159.428 13.3482 160.105 13.3788 160.28 12.2914C160.361 11.7875 160.286 11.4069 160.1 11.0699C159.896 10.7026 159.621 10.4958 159.227 10.4162C158.899 10.3501 158.464 10.3079 158.098 10.3205L157.049 10.3227L157.048 10.3378C156.358 10.3282 155.652 10.3126 154.869 10.4211C153.299 10.6388 152.066 11.5962 151.565 13.1929C151.373 13.8042 151.29 14.39 151.308 14.9394C151.351 15.1731 151.382 15.4068 151.399 15.6413C151.4 15.6529 151.401 15.6632 151.402 15.6748C151.475 16.0039 151.587 16.317 151.747 16.6059C152.271 17.5537 153.247 18.2361 154.567 18.5775C156.484 19.0947 157.679 19.6691 157.704 20.9282C157.65 21.6244 157.292 22.0417 156.609 22.2035C156.127 22.3176 155.555 22.321 155.056 22.324L151.353 22.2984V22.3006C151.077 22.2932 150.749 22.4056 150.585 22.7426C150.573 22.7665 150.562 22.784 150.552 22.7978C150.524 22.854 150.497 22.9097 150.467 22.9659C150.443 23.0108 150.415 23.0529 150.39 23.0968C150.087 23.6286 149.699 24.1019 149.241 24.5111C149.171 24.5732 149.093 24.6274 149.02 24.6866C148.987 24.7236 148.938 24.7679 148.863 24.8251C148.363 25.2045 148.612 25.2942 149.003 25.315L155.819 25.3588H155.821H155.825C158.843 25.331 160.762 23.7156 160.958 21.0485C161.138 19.2598 159.847 17.0205 157.435 16.2509Z" fill="#002674"/>
<path d="M6.22304 15.9261C5.95284 18.7209 6.65832 21.3992 7.4284 22.7048C7.71384 23.1884 8.11939 23.4936 8.41809 23.4517C8.68584 23.4125 9.08967 22.9959 9.34833 21.9519C10.1309 18.7904 9.63106 16.129 9.36233 14.6992C9.23288 14.01 8.73668 12.488 7.72759 10.7629C7.07517 12.0729 6.42078 13.8788 6.22304 15.9261Z" fill="#4579BD"/>
<mask id="mask0" mask-type="alpha" maskUnits="userSpaceOnUse" x="4" y="0" width="26" height="24">
<path d="M29.6112 0.132019H4.45634V23.1828H29.6112V0.132019Z" fill="white"/>
</mask>
<g mask="url(#mask0)">
<path d="M7.67448 7.44938C8.51679 6.40243 9.40453 5.40036 11.3073 4.35243C13.4716 3.16029 16.4436 3.00893 19.0648 3.95677C21.5021 4.8388 24.0774 7.5751 23.9718 11.4996C23.89 14.5219 22.58 16.7461 19.9668 18.2997C19.8954 18.3399 19.8236 18.3783 19.7512 18.415C20.0123 18.9416 20.2476 19.4009 20.4262 19.7004C22.0484 22.0827 23.6976 23.9599 27.3616 22.8607C28.7853 20.578 29.6112 17.8816 29.6112 14.99C29.6112 6.78404 22.9823 0.131866 14.8054 0.131866C10.7767 0.131866 7.12597 1.749 4.45634 4.36894C5.73589 5.30816 6.8 6.37014 7.67448 7.44938Z" fill="#4EC1E0"/>
</g>
<mask id="mask1" mask-type="alpha" maskUnits="userSpaceOnUse" x="0" y="5" width="26" height="25">
<path d="M25.7235 29.8482H0V5.18118H25.7235V29.8482Z" fill="white"/>
</mask>
<g mask="url(#mask1)">
<path d="M17.9882 19.0069C16.3157 19.3276 14.6817 19.0586 13.9563 18.733C13.0948 18.3457 12.4365 17.5054 12.2383 16.5405C12.0489 15.618 12.2972 14.7244 12.9376 14.0246C13.5593 13.3454 14.3879 13.0052 15.2661 13.0647C16.2132 13.129 17.1248 13.6669 17.7045 14.5036C18.0469 14.9976 18.4857 15.8468 18.9372 16.7589C18.974 16.7394 19.0106 16.7197 19.047 16.6993C21.1096 15.4731 22.0666 13.8503 22.1315 11.4495C22.2125 8.44253 20.2749 6.3585 18.4405 5.69489C16.3019 4.92133 13.9081 5.02757 12.1931 5.97197C10.4387 6.9383 9.75166 7.80036 8.8816 8.89192C8.8256 8.96218 8.81331 8.97796 8.80079 8.99398C10.2891 11.2681 10.9902 13.3925 11.1715 14.3571C11.466 15.9252 12.0145 18.8444 11.1346 22.3977C10.5711 24.6747 9.3579 25.1808 8.68484 25.2799C8.57627 25.2957 8.46794 25.3036 8.35937 25.3036C7.40186 25.3036 6.46057 24.692 5.84401 23.6458C4.89584 22.038 4.07883 18.9724 4.39055 15.7475C4.66125 12.9444 5.67771 10.5547 6.56963 9.02923C5.72119 7.91178 4.65413 6.79508 3.33405 5.83293L3.2299 5.75824C1.20508 8.28574 -3.05176e-05 11.4958 -3.05176e-05 14.9902C-3.05176e-05 23.1961 6.62859 29.8483 14.8055 29.8483C19.128 29.8483 23.0168 27.9886 25.7235 25.024C21.9499 25.2163 20.0811 22.4701 18.8905 20.7196C18.6242 20.2801 18.3194 19.6784 17.9882 19.0069Z" fill="#77BD43"/>
</g>
<path d="M15.1417 14.908C15.1174 14.9063 15.0938 14.9055 15.07 14.9055C14.7787 14.9055 14.5178 15.0293 14.2935 15.2743C14.0572 15.5322 13.9725 15.8327 14.0415 16.1669C14.1184 16.5431 14.393 16.905 14.7087 17.0465C15.0649 17.207 16.0565 17.3768 17.1317 17.2659C16.7748 16.5537 16.4328 15.9044 16.1931 15.5583C15.9295 15.1779 15.5362 14.9349 15.1417 14.908Z" fill="#EC008C"/>
<path d="M14.7088 17.0466C14.3929 16.9048 14.1185 16.5432 14.0414 16.167C13.9726 15.8327 14.0573 15.5322 14.2934 15.2741C14.5179 15.0291 14.7785 14.9056 15.0701 14.9056C15.0937 14.9056 15.1175 14.9061 15.1418 14.9081C15.5363 14.9347 15.9296 15.178 16.1932 15.5584C16.4329 15.9045 16.7749 16.5538 17.1315 17.2657C16.0566 17.3766 15.0647 17.2068 14.7088 17.0466ZM9.36241 14.6993C9.63114 16.129 10.131 18.7904 9.34816 21.9519C9.08975 22.9959 8.68567 23.4125 8.41816 23.4517C8.11946 23.4936 7.71367 23.1885 7.42848 22.7048C6.65839 21.3993 5.95267 18.7209 6.22312 15.9262C6.42086 13.8789 7.07525 12.0729 7.72742 10.7627C8.73676 12.488 9.23295 14.01 9.36241 14.6993ZM20.4261 19.7003C20.2475 19.4008 20.0124 18.9415 19.751 18.415C19.8235 18.3785 19.8955 18.3398 19.9667 18.2996C22.5798 16.7461 23.8898 14.5218 23.9716 11.4995C24.0775 7.57502 21.5022 4.83871 19.065 3.95669C16.4437 3.00884 13.4715 3.1602 11.3074 4.35234C9.40466 5.40027 8.51667 6.40235 7.67461 7.44929C6.79988 6.37006 5.73577 5.30832 4.45647 4.36886C4.01505 4.80223 3.60164 5.26321 3.21672 5.7486C3.22139 5.75205 3.22532 5.75476 3.22999 5.75821L3.33389 5.8329C4.65421 6.79505 5.72127 7.91175 6.56972 9.0292C5.6778 10.5546 4.66133 12.9443 4.39039 15.7474C4.07892 18.9723 4.89592 22.038 5.84409 23.6457C6.46065 24.6919 7.40195 25.3035 8.35946 25.3035C8.46803 25.3035 8.57636 25.2957 8.68493 25.2799C9.35774 25.1808 10.5712 24.6747 11.1347 22.3976C12.0143 18.8444 11.4661 15.9252 11.1716 14.3571C10.9903 13.3925 10.2892 11.268 8.80087 8.9942C8.8134 8.97793 8.82568 8.96215 8.83796 8.94686L8.88169 8.89189C9.7515 7.80033 10.4386 6.93827 12.1929 5.97194C13.9082 5.02754 16.302 4.9213 18.4406 5.69486C20.2748 6.35847 22.2126 8.4425 22.1313 11.4497C22.0667 13.8505 21.1097 15.4731 19.047 16.6992C19.0107 16.7197 18.9741 16.7397 18.9372 16.7589C18.4858 15.8468 18.047 14.9975 17.7046 14.5035C17.1247 13.6669 16.2133 13.129 15.2661 13.0646C14.388 13.0052 13.5594 13.3454 12.9377 14.0246C12.2973 14.7247 12.049 15.618 12.2384 16.5405C12.4366 17.5053 13.0949 18.3457 13.9564 18.733C14.6818 19.0586 16.3158 19.3278 17.9883 19.0068C18.3195 19.6783 18.624 20.2801 18.8633 20.677L18.8906 20.7196C20.0809 22.4701 21.95 25.2163 25.7236 25.024C26.333 24.3564 26.8805 23.6317 27.3617 22.8606C23.6978 23.96 22.0485 22.0828 20.4261 19.7003Z" fill="#2A2F7C"/>
<path d="M110.5 21.629C110.059 22.0128 109.386 22.2066 108.469 22.2176C108.422 22.2218 108.374 22.225 108.32 22.226C107.345 22.2433 106.855 22.1565 106.405 21.9598L106.362 21.9171C105.826 21.6157 105.375 20.9656 105.39 19.9815C105.403 19.2062 105.649 18.2604 106.753 18.1573C107.862 18.054 108.968 18.0765 110.139 18.0999C110.527 18.1078 110.921 18.1157 111.324 18.1191C111.32 18.3664 111.317 18.5798 111.33 18.7766C111.357 20.2071 111.093 21.1135 110.5 21.629ZM114.434 14.732C114.163 12.3756 112.338 10.6401 109.894 10.4138C108.728 10.3059 107.5 10.2585 106.239 10.2706C106.226 10.2706 106.213 10.2736 106.2 10.2748H102.955C102.778 10.3056 102.568 10.3236 102.314 10.3236C102.222 10.3236 102.137 10.3315 102.049 10.3349C100.781 10.3865 99.809 10.7927 99.0851 11.3429C98.1318 12.0672 97.6012 13.0311 97.3765 13.7331C97.3765 13.7331 97.3693 13.7341 97.3593 13.7356C96.7619 15.703 96.4568 16.7376 96.1355 17.8265C96.1325 17.8361 96.1298 17.8457 96.1269 17.8553C96.1141 17.9044 95.4023 20.6501 95.3573 20.8174C95.3033 21.0189 95.2497 21.1801 95.1067 21.276C95.1065 21.2765 95.1065 21.2767 95.1063 21.2772C95.1063 21.277 95.106 21.2767 95.106 21.2765C95.0186 21.3349 94.8979 21.3687 94.7231 21.3721C94.2428 21.3812 94.1976 21.1811 94.0493 20.7617C93.9397 20.4521 92.8803 17.0897 92.3325 15.3485C92.0412 14.7584 91.7049 14.5649 91.0117 14.5032H90.9768H89.4261C89.2573 14.5028 89.1352 14.5198 89.0473 14.5516C88.865 14.6171 88.8326 14.7483 88.8613 14.9307L89.1099 15.8564C89.7918 18.2345 90.1546 19.4582 91.2966 23.1712C91.696 24.47 92.7751 25.318 94.7503 25.318C96.7253 25.318 97.4863 24.5267 97.9513 23.2473C98.1362 22.738 98.7412 20.687 99.5072 18.0905C99.7609 17.2299 100.028 16.3233 100.296 15.4193C100.625 14.4604 101.212 13.3239 103.197 13.3239C103.318 13.3239 103.421 13.3175 103.512 13.3072L106.233 13.3138C106.252 13.3163 106.27 13.3197 106.29 13.3197C106.998 13.3197 107.68 13.3259 108.379 13.3321L108.92 13.337C110.177 13.3476 110.839 13.8492 111.17 15.0944C110.897 15.0922 110.627 15.0892 110.359 15.0863C108.959 15.0697 107.637 15.0549 106.295 15.1955C103.993 15.4365 102.431 17.0956 102.118 19.6337C101.837 21.9063 103.18 24.0736 105.313 24.7868C106.326 25.1258 107.297 25.2855 108.384 25.2855C108.619 25.2855 108.86 25.2779 109.107 25.2631C112.23 25.077 114.124 23.5168 114.44 20.8702C114.677 18.8877 114.675 16.8224 114.434 14.732Z" fill="#002674"/>
</svg>
