<svg width="20" height="20" viewBox="0 0 20 20" fill="none" xmlns="http://www.w3.org/2000/svg">
<path d="M6.32499 4.50831C5.67499 3.85831 5.67499 2.79998 6.32499 2.14998C6.97499 1.49998 8.03333 1.49998 8.68333 2.14998C9.33333 2.79998 9.33333 3.85831 8.68333 4.50831C8.02499 5.16664 6.97499 5.16664 6.32499 4.50831ZM4.99999 13.3333V5.83331H3.33333V13.3333C3.33333 15.6333 5.19999 17.5 7.49999 17.5H12.5V15.8333H7.49999C6.11666 15.8333 4.99999 14.7166 4.99999 13.3333ZM16.6667 16.725L12.4417 12.5H9.58333V9.43331C10.75 10.3916 12.5833 11.2333 14.1667 11.2333V9.43331C12.7833 9.44998 11.1583 8.70831 10.275 7.73331L9.10833 6.44164C8.94999 6.26664 8.74999 6.12498 8.53333 6.02498C8.29166 5.90831 8.01666 5.83331 7.73333 5.83331H7.70833C6.67499 5.83331 5.83333 6.67498 5.83333 7.70831V12.5C5.83333 13.8833 6.94999 15 8.33333 15H12.5583L15.475 17.9166L16.6667 16.725Z" fill="#232323"/>
</svg>
