<svg width="20" height="20" viewBox="0 0 20 20" fill="none" xmlns="http://www.w3.org/2000/svg">
<path d="M10 1.66669C5.40501 1.66669 1.66667 5.40502 1.66667 10C1.66667 14.595 5.40501 18.3334 10 18.3334C14.595 18.3334 18.3333 14.595 18.3333 10C18.3333 5.40502 14.595 1.66669 10 1.66669ZM10 16.6667C6.32417 16.6667 3.33334 13.6759 3.33334 10C3.33334 6.32419 6.32417 3.33335 10 3.33335C13.6758 3.33335 16.6667 6.32419 16.6667 10C16.6667 13.6759 13.6758 16.6667 10 16.6667Z" fill="#232323"/>
<path d="M10.8333 5.83331H9.16667V10.345L11.9108 13.0891L13.0892 11.9108L10.8333 9.65498V5.83331Z" fill="#232323"/>
</svg>
