<svg width="30" height="30" viewBox="0 0 30 30" fill="none" xmlns="http://www.w3.org/2000/svg">
<path d="M22.2656 12.6562V4.21875C22.2656 3.7002 21.8467 3.28125 21.3281 3.28125H8.67188C8.15332 3.28125 7.73438 3.7002 7.73438 4.21875V12.6562C5.79492 12.6562 4.21875 14.1826 4.21875 16.0547V26.4844C4.21875 26.6133 4.32422 26.7188 4.45312 26.7188H6.09375C6.22266 26.7188 6.32812 26.6133 6.32812 26.4844V16.0547C6.32812 15.3428 6.96094 14.7656 7.7373 14.7656H22.2627C23.0391 14.7656 23.6719 15.3428 23.6719 16.0547V26.4844C23.6719 26.6133 23.7773 26.7188 23.9062 26.7188H25.5469C25.6758 26.7188 25.7812 26.6133 25.7812 26.4844V16.0547C25.7812 14.1826 24.2051 12.6562 22.2656 12.6562ZM9.84375 12.6562V5.39062H20.1562V12.6562H9.84375ZM13.3594 7.26562H11.9531C11.8242 7.26562 11.7188 7.37109 11.7188 7.5V8.90625C11.7188 9.03516 11.8242 9.14062 11.9531 9.14062H13.3594C13.4883 9.14062 13.5938 9.03516 13.5938 8.90625V7.5C13.5938 7.37109 13.4883 7.26562 13.3594 7.26562ZM18.0469 7.26562H16.6406C16.5117 7.26562 16.4062 7.37109 16.4062 7.5V8.90625C16.4062 9.03516 16.5117 9.14062 16.6406 9.14062H18.0469C18.1758 9.14062 18.2812 9.03516 18.2812 8.90625V7.5C18.2812 7.37109 18.1758 7.26562 18.0469 7.26562Z" fill="#CE348B"/>
</svg>
