<svg width="20" height="20" viewBox="0 0 20 20" fill="none" xmlns="http://www.w3.org/2000/svg">
<g clip-path="url(#clip0)">
<path d="M7.33334 -0.000665478C6.71147 -0.0155363 6.0929 0.0941052 5.51403 0.321809C4.93516 0.549514 4.40767 0.890682 3.96259 1.32525C3.51751 1.75981 3.16383 2.279 2.92235 2.85226C2.68087 3.42552 2.55647 4.04129 2.55647 4.66333C2.55647 5.28538 2.68087 5.90115 2.92235 6.47441C3.16383 7.04767 3.51751 7.56686 3.96259 8.00142C4.40767 8.43599 4.93516 8.77715 5.51403 9.00486C6.0929 9.23256 6.71147 9.34221 7.33334 9.32733C7.95521 9.34221 8.57377 9.23256 9.15264 9.00486C9.73151 8.77715 10.259 8.43599 10.7041 8.00142C11.1492 7.56686 11.5028 7.04767 11.7443 6.47441C11.9858 5.90115 12.1102 5.28538 12.1102 4.66333C12.1102 4.04129 11.9858 3.42552 11.7443 2.85226C11.5028 2.279 11.1492 1.75981 10.7041 1.32525C10.259 0.890682 9.73151 0.549514 9.15264 0.321809C8.57377 0.0941052 7.95521 -0.0155363 7.33334 -0.000665478Z" fill="#CE348B"/>
<path d="M4.66667 11.992C3.42899 11.992 2.242 12.4837 1.36683 13.3588C0.491665 14.234 0 15.421 0 16.6587L0 19.988H14.6667V16.6587C14.6667 15.421 14.175 14.234 13.2998 13.3588C12.4247 12.4837 11.2377 11.992 10 11.992H4.66667Z" fill="#CE348B"/>
<path d="M16.6667 13.3333H16V20H20V16.6667C20 15.7826 19.6488 14.9348 19.0237 14.3097C18.3986 13.6845 17.5507 13.3333 16.6667 13.3333Z" fill="#CE348B"/>
<path d="M15.3333 5.33333C14.4493 5.33333 13.6014 5.68452 12.9763 6.30964C12.3512 6.93476 12 7.78261 12 8.66666C12 9.55072 12.3512 10.3986 12.9763 11.0237C13.6014 11.6488 14.4493 12 15.3333 12C16.2174 12 17.0652 11.6488 17.6904 11.0237C18.3155 10.3986 18.6667 9.55072 18.6667 8.66666C18.6667 7.78261 18.3155 6.93476 17.6904 6.30964C17.0652 5.68452 16.2174 5.33333 15.3333 5.33333Z" fill="#CE348B"/>
</g>
<defs>
<clipPath id="clip0">
<rect width="20" height="20" fill="white"/>
</clipPath>
</defs>
</svg>
