<svg width="16" height="14" viewBox="0 0 16 14" fill="none" xmlns="http://www.w3.org/2000/svg">
<path d="M0.5 6.99997C0.5 7.51747 0.92 7.93747 1.4375 7.93747H12.4213L8.3125 11.6137C8.21992 11.6956 8.14443 11.7949 8.09038 11.906C8.03633 12.0172 8.00478 12.1379 7.99755 12.2612C7.99031 12.3846 8.00754 12.5082 8.04824 12.6248C8.08893 12.7415 8.15229 12.849 8.23468 12.9411C8.31706 13.0332 8.41684 13.1081 8.52828 13.1615C8.63971 13.2149 8.76061 13.2458 8.88401 13.2523C9.00741 13.2588 9.13088 13.2409 9.24732 13.1995C9.36376 13.1581 9.47088 13.0941 9.5625 13.0112L15.5 7.69872C15.5983 7.61079 15.677 7.50309 15.7308 7.38269C15.7846 7.26228 15.8125 7.13187 15.8125 6.99997C15.8125 6.86807 15.7846 6.73766 15.7308 6.61725C15.677 6.49685 15.5983 6.38916 15.5 6.30122L9.5625 0.98872C9.47088 0.905803 9.36376 0.841818 9.24732 0.800445C9.13088 0.759072 9.00741 0.741127 8.88401 0.747642C8.76061 0.754157 8.63971 0.785005 8.52828 0.838409C8.41684 0.891814 8.31706 0.966723 8.23468 1.05883C8.15229 1.15093 8.08893 1.25841 8.04824 1.37509C8.00754 1.49177 7.99031 1.61535 7.99755 1.73871C8.00478 1.86207 8.03633 1.98278 8.09038 2.09391C8.14443 2.20503 8.21992 2.30437 8.3125 2.38622L12.4213 6.06247H1.4375C1.31439 6.06247 1.19248 6.08672 1.07873 6.13383C0.964992 6.18095 0.861642 6.25 0.774587 6.33706C0.687532 6.42411 0.618477 6.52746 0.571363 6.6412C0.524249 6.75495 0.5 6.87686 0.5 6.99997Z" fill="#232323"/>
</svg>
