<svg width="21" height="22" viewBox="0 0 21 22" fill="none" xmlns="http://www.w3.org/2000/svg">
<g clip-path="url(#clip0)">
<path d="M6.03725 18.3335L6.36968 18.4997C7.75499 19.3308 9.3064 19.7187 10.8579 19.7187C15.7339 19.7187 19.7233 15.7293 19.7233 10.8533C19.7233 8.52612 18.7813 6.25433 17.1191 4.59204C15.4568 2.92974 13.2404 1.98782 10.8579 1.98782C5.98189 1.98782 1.99236 5.97727 2.0478 10.9087C2.0478 12.5709 2.54649 14.1779 3.37759 15.563L3.59921 15.8955L2.71274 19.1647L6.03725 18.3335Z" fill="#00E676"/>
<path d="M18.061 3.70549C16.1771 1.76622 13.5729 0.713409 10.9133 0.713409C5.26159 0.713409 0.718019 5.31235 0.773384 10.9086C0.773384 12.6817 1.27206 14.3995 2.10325 15.9509L0.662575 21.2148L6.03725 19.8295C7.5333 20.6607 9.19551 21.0486 10.8579 21.0486C16.4542 21.0486 20.9978 16.4496 20.9978 10.8534C20.9978 8.13826 19.945 5.58941 18.0611 3.70549H18.061ZM10.9133 19.3309C9.41721 19.3309 7.92117 18.9431 6.64674 18.1674L6.31432 18.0011L3.10061 18.8322L3.93172 15.674L3.7101 15.3415C1.27206 11.4075 2.43568 6.1989 6.42513 3.76086C10.4146 1.3229 15.5676 2.48651 18.0057 6.47596C20.4436 10.4654 19.28 15.6185 15.2907 18.0565C14.0161 18.8876 12.4647 19.3308 10.9133 19.3308V19.3309ZM15.7893 13.1806L15.1798 12.9035C15.1798 12.9035 14.2933 12.5157 13.7392 12.2386C13.6837 12.2386 13.6284 12.1831 13.5729 12.1831C13.4067 12.1831 13.2958 12.2386 13.185 12.294C13.185 12.294 13.1297 12.3494 12.3539 13.236C12.2985 13.3468 12.1877 13.4022 12.0769 13.4022H12.0214C11.9661 13.4022 11.8553 13.3468 11.7998 13.2914L11.5227 13.1806C10.9133 12.9035 10.3592 12.571 9.91589 12.1278C9.80508 12.017 9.63883 11.9062 9.52802 11.7954C9.14015 11.4075 8.75228 10.9642 8.47529 10.4655L8.41985 10.3547C8.36448 10.2992 8.36448 10.2439 8.30904 10.1331C8.30904 10.0222 8.30904 9.91144 8.36448 9.856C8.36448 9.856 8.5861 9.57893 8.75228 9.41276C8.86317 9.30187 8.91853 9.1357 9.02934 9.02489C9.14015 8.85863 9.19559 8.63702 9.14015 8.47076C9.08478 8.1937 8.41985 6.69766 8.25368 6.36523C8.14279 6.19898 8.03206 6.14361 7.8658 6.08817H7.25631C7.14543 6.08817 7.0347 6.14361 6.92381 6.14361L6.86836 6.19898C6.75755 6.25442 6.64674 6.36523 6.53594 6.42059C6.42513 6.53148 6.36968 6.64221 6.25887 6.7531C5.871 7.25178 5.64938 7.86127 5.64938 8.47076C5.64938 8.914 5.76019 9.35731 5.92645 9.74519L5.98189 9.91144C6.48057 10.9642 7.14543 11.9062 8.03206 12.7373L8.25368 12.9589C8.41985 13.1251 8.5861 13.236 8.69691 13.4021C9.86053 14.3996 11.1903 15.1199 12.6864 15.5077C12.8526 15.5631 13.0742 15.5631 13.2405 15.6185H13.7945C14.0716 15.6185 14.404 15.5077 14.6257 15.3969C14.7919 15.2861 14.9027 15.2861 15.0135 15.1753L15.1244 15.0644C15.2352 14.9536 15.346 14.8982 15.4568 14.7874C15.5676 14.6766 15.6784 14.5658 15.7339 14.4549C15.8447 14.2333 15.9001 13.9562 15.9555 13.6793V13.2914C15.9555 13.2914 15.9001 13.236 15.7893 13.1806Z" fill="white"/>
</g>
<defs>
<clipPath id="clip0">
<rect width="20.34" height="20.5732" fill="white" transform="translate(0.660004 0.713409)"/>
</clipPath>
</defs>
</svg>
